STARTFONT 2.1
FONT -gbdfed-Unknown-Medium-R-Normal--32-120-192-192-P-210-FontSpecific-0
SIZE 12 192 192
FONTBOUNDINGBOX 21 32 0 -8
STARTPROPERTIES 9
POINT_SIZE 120
PIXEL_SIZE 32
RESOLUTION_X 192
RESOLUTION_Y 192
FONT_ASCENT 24
FONT_DESCENT 8
AVERAGE_WIDTH 210
SPACING "P"
_GBDFED_INFO "Edited with gbdfed 1.6."
ENDPROPERTIES
CHARS 7
STARTCHAR char48
ENCODING 48
SWIDTH 562 0
DWIDTH 18 0
BBX 16 8 2 10
BITMAP
7FFC
8002
8002
8003
8003
8002
8002
7FFC
ENDCHAR
STARTCHAR char48
ENCODING 49
SWIDTH 562 0
DWIDTH 18 0
BBX 16 8 2 10
BITMAP
7FFC
8002
B002
B003
B003
B002
8002
7FFC
ENDCHAR
STARTCHAR char48
ENCODING 50
SWIDTH 562 0
DWIDTH 18 0
BBX 16 8 2 10
BITMAP
7FFC
8002
B602
B603
B603
B602
8002
7FFC
ENDCHAR
STARTCHAR char48
ENCODING 51
SWIDTH 562 0
DWIDTH 18 0
BBX 16 8 2 10
BITMAP
7FFC
8002
B6C2
B6C3
B6C3
B6C2
8002
7FFC
ENDCHAR
STARTCHAR char48
ENCODING 52
SWIDTH 562 0
DWIDTH 18 0
BBX 16 8 2 10
BITMAP
7FFC
8002
B6DA
B6DB
B6DB
B6DA
8002
7FFC
ENDCHAR
STARTCHAR char53
ENCODING 53
SWIDTH 656 0
DWIDTH 21 0
BBX 20 20 1 4
BITMAP
01F800
060600
180180
240240
2E0740
5E07A0
5F0FA0
BF0FD0
BF0FD0
BE67D0
80F010
806010
800010
40F020
41F820
21F840
23FC40
19F980
060600
01F800
ENDCHAR
STARTCHAR char54
ENCODING 54
SWIDTH 562 0
DWIDTH 18 0
BBX 18 16 0 7
BITMAP
01E000
03F000
07F800
07F800
07F800
07F800
0C4C00
084000
07FC00
8738C0
F7FF00
08E000
020000
03F000
19E600
700380
ENDCHAR
ENDFONT
