#define warning_width 13
#define warning_height 14
static unsigned char warning_bits[] = {
   0x40, 0x00, 0xa0, 0x00, 0xa0, 0x00, 0x10, 0x01, 0x10, 0x01, 0x48, 0x02,
   0x48, 0x02, 0x44, 0x04, 0x44, 0x04, 0x42, 0x08, 0x02, 0x08, 0x41, 0x10,
   0x01, 0x10, 0xff, 0x1f };
